<?xml version="1.0" standalone="no"?>
<!DOCTYPE svg PUBLIC "-//W3C//DTD SVG 20010904//EN"
 "http://www.w3.org/TR/2001/REC-SVG-20010904/DTD/svg10.dtd">
<svg version="1.0" xmlns="http://www.w3.org/2000/svg"
 width="200.000000pt" height="200.000000pt" viewBox="0 0 200.000000 200.000000"
 preserveAspectRatio="xMidYMid meet">
<metadata>
Created by potrace 1.11, written by Peter Selinger 2001-2013
</metadata>
<g transform="translate(0.000000,200.000000) scale(0.100000,-0.100000)"
fill="#000000" stroke="none">
<path d="M838 1884 c-347 -63 -628 -331 -715 -681 -25 -103 -22 -323 6 -428
81 -304 310 -543 606 -634 102 -32 136 -36 285 -35 115 1 148 5 223 28 302 91
525 309 616 601 31 98 36 142 35 290 -1 109 -6 144 -28 218 -99 332 -364 575
-701 642 -66 13 -252 13 -327 -1z m362 -325 c173 -57 314 -201 371 -379 89
-275 -43 -585 -302 -708 -103 -49 -168 -63 -280 -61 -235 5 -465 169 -535 382
-9 29 -19 57 -21 63 -3 8 90 11 319 12 178 0 329 1 336 1 9 1 12 31 12 116 l0
115 -339 0 -339 0 12 48 c63 238 273 418 515 440 89 9 161 0 251 -29z"/>
</g>
</svg>
